<svg width="38" height="38" viewBox="0 0 38 38" fill="none" xmlns="http://www.w3.org/2000/svg">
<path d="M36.3624 38L21.8379 23.4772C20.6781 24.4652 19.3444 25.2297 17.8368 25.7709C16.3291 26.312 14.8137 26.5826 13.2906 26.5826C9.57635 26.5826 6.43268 25.297 3.85961 22.7258C1.28654 20.153 0 17.0105 0 13.2983C0 9.586 1.28499 6.44195 3.85497 3.8661C6.4265 1.2887 9.56862 0 13.2813 0C16.9956 0 20.1408 1.28638 22.717 3.85914C25.2931 6.4319 26.5812 9.57595 26.5812 13.2913C26.5812 14.9024 26.2959 16.4616 25.7253 17.9691C25.1532 19.4766 24.4032 20.7661 23.4754 21.8375L30.7377 29.0978L38 36.358L36.3601 38H36.3624ZM13.2906 24.2611C16.3678 24.2611 18.9664 23.202 21.0864 21.0838C23.2048 18.9656 24.2641 16.3673 24.2641 13.289C24.2641 10.2122 23.2048 7.61469 21.0864 5.49649C18.9679 3.37829 16.3701 2.31919 13.2929 2.31919C10.2157 2.31919 7.61716 3.37829 5.49716 5.49649C3.37871 7.61469 2.31948 10.2122 2.31948 13.289C2.31948 16.3658 3.37871 18.9633 5.49716 21.0815C7.61562 23.1997 10.2134 24.2611 13.2906 24.2611Z" fill="#82807D"/>
</svg>
