<svg width="31" height="31" viewBox="0 0 31 31" fill="none" xmlns="http://www.w3.org/2000/svg">
<path d="M28.225 0.501091L15.5016 13.2259L2.77819 0.501091C2.47217 0.221028 2.06991 0.0698436 1.6552 0.0790333C1.2405 0.088223 0.845329 0.257078 0.552016 0.550423C0.258703 0.843767 0.0898655 1.23898 0.0806767 1.65373C0.071488 2.06848 0.222656 2.47078 0.50269 2.77683L13.2197 15.5016L0.499462 28.2232C0.344058 28.3713 0.219829 28.549 0.134078 28.7458C0.0483261 28.9426 0.00278201 29.1546 0.000123517 29.3693C-0.00253498 29.584 0.0377457 29.797 0.118597 29.9959C0.199448 30.1948 0.319239 30.3755 0.470927 30.5274C0.622616 30.6793 0.803141 30.7994 1.00189 30.8805C1.20064 30.9617 1.4136 31.0023 1.62826 30.9999C1.84292 30.9976 2.05495 30.9523 2.25187 30.8668C2.44879 30.7813 2.62664 30.6574 2.77496 30.5021L15.5016 17.7806L28.225 30.5054C28.5311 30.7854 28.9333 30.9366 29.348 30.9274C29.7627 30.9182 30.1579 30.7494 30.4512 30.456C30.7445 30.1627 30.9134 29.7675 30.9226 29.3527C30.9317 28.938 30.7806 28.5357 30.5005 28.2296L17.7771 15.5048L30.5005 2.77683C30.6559 2.62872 30.7802 2.45102 30.8659 2.2542C30.9517 2.05738 30.9972 1.8454 30.9999 1.63072C31.0025 1.41604 30.9623 1.203 30.8814 1.00411C30.8006 0.805226 30.6808 0.624511 30.5291 0.472592C30.3774 0.320672 30.1969 0.200612 29.9981 0.11947C29.7994 0.0383286 29.5864 -0.00225761 29.3717 9.68735e-05C29.1571 0.00245136 28.9451 0.0476994 28.7481 0.133181C28.5512 0.218663 28.3734 0.342653 28.225 0.497863V0.501091Z" fill="#82807D"/>
</svg>
